<?xml version="1.0"?>
<svg xmlns="http://www.w3.org/2000/svg" xmlns:xlink="http://www.w3.org/1999/xlink" xmlns:svgjs="http://svgjs.com/svgjs" version="1.1" width="512" height="512" x="0" y="0" viewBox="0 0 583.288 583.288" style="enable-background:new 0 0 512 512" xml:space="preserve" class=""><g>
<g xmlns="http://www.w3.org/2000/svg">
	<g>
		<path d="M581.333,466.766c-19.862-40.345-45.774-35.861-43.229,11.91c4.309,16.267-23.074,28.247-33.992,34.4    c-20.364,11.467-30.243,3.598-51.52-3.631c-31.364-10.696-67.271,4.554-98.812,6.422c-23.996,1.425-36.456-25.047-43.158-57.112    c2.277,3.771,4.601,7.532,7.088,11.151c28.281,41.244,87.076,35.545,130.152,25.328c51.239-12.156,65.322-59.962,55.84-107.23    c-4.693-23.344-37.74-91.701-8.897-102.333c15.449-5.692,34.237-5.19,50.469-3.649c28.024-13.82,31.015-23.78,0-44.84    c-27.897-2.65-56.692,0.753-81.729,13.645c-1.974,1.016-3.655,2.166-5.371,3.299c2.358-12.448,3.655-25.287,3.655-38.453    C461.818,107.449,378.163,19.38,275.352,19.38c-102.805,0-186.46,88.069-186.46,196.304c0,87.17,54.275,161.156,129.09,186.706    c-4.963,8.36-10.224,16.534-14.766,22.128c-14.305,17.621-17.878,7.719-35.691,2.254c-17.375-5.302-32.801-5.629-50.848-3.27    c-26.781,3.503-49.668,2.195-47.789-29.345c0.952-16.243,5.284-32.591,7.042-48.845c3.06-28.166-8.694-49.512-30.372-66.041    c-42.785-15.758-44.782,0.683-22.636,38.715c28.982,22.093-14.013,89.867,8.729,121.827c12.138,17.061,25.947,27.149,46.732,30.77    c28.836,5.033,55.052-12.682,82.791,3.596c31.055,18.217,57.393,2.523,77.869-22.42c-3.205,28.971-8.682,53.003-18.187,54.264    c-51.601,6.832-97.767,9.027-143.453-18.729c-23.81-14.468-57.913-4.612-74.605,15.997c-9.289,41.699,5.395,39.784,31.715,31.715    c15.11-18.672,41.851,6.762,58.351,11.689c22.8,6.796,45.412,8.828,69.158,8.991c27.709,0.198,79.556,3.597,96.856-24.288    c6.65-10.72,11.683-22.701,15.618-35.429c10.439,36.362,32.427,63.71,79.311,64.737c23.821,0.537,47.444-6.982,70.88-10.018    c28.025-3.656,50.071,20.213,79.265,11.15C543.896,549.428,593.828,513.73,581.333,466.766z M294.725,320.883    c-7.374,2.195-16.068,3.106-26.163,3.106c-36.012,0-81.091-52.92-81.091-52.92s35.294-44.11,68.515-52.658    c7.362-2.189,16.068-3.112,26.151-3.112c36.018,0,81.104,52.927,81.104,52.927S327.951,312.335,294.725,320.883z M451.799,364.742    c8.805,30.209,23.249,74.021-15.857,87.252c-18.193,6.165-62.181,11.84-77.699-2.826c-12.016-11.373-20.634-28.142-27.348-46.078    c45.762-15.062,83.911-48.285,107.032-91.548C440.507,330.189,447.314,349.375,451.799,364.742z M112.807,215.684    c0-94.871,72.918-172.056,162.545-172.056s162.551,77.186,162.551,172.056c0,56.354-25.842,106.32-65.521,137.708    c25.001-26.787,40.484-63.862,40.484-104.837c0-81.728-61.55-147.972-137.503-147.972c-75.948,0-137.509,66.244-137.509,147.972    c0,40.975,15.489,78.05,40.49,104.837C138.648,322.004,112.807,272.038,112.807,215.684z" fill="#ffff00" data-original="#000000" style=""/>
		<path d="M273.32,236.633c-19.343,0-35.02,15.688-35.02,35.037c0,19.343,15.676,35.038,35.02,35.038    c19.349,0,35.025-15.694,35.025-35.038C308.346,252.321,292.669,236.633,273.32,236.633z M273.157,292.152    c-11.064,0-20.032-8.968-20.032-20.026c0-11.064,8.968-20.032,20.032-20.032c11.058,0,20.026,8.968,20.026,20.032    C293.183,283.184,284.215,292.152,273.157,292.152z" fill="#ffff00" data-original="#000000" style=""/>
	</g>
</g>
<g xmlns="http://www.w3.org/2000/svg">
</g>
<g xmlns="http://www.w3.org/2000/svg">
</g>
<g xmlns="http://www.w3.org/2000/svg">
</g>
<g xmlns="http://www.w3.org/2000/svg">
</g>
<g xmlns="http://www.w3.org/2000/svg">
</g>
<g xmlns="http://www.w3.org/2000/svg">
</g>
<g xmlns="http://www.w3.org/2000/svg">
</g>
<g xmlns="http://www.w3.org/2000/svg">
</g>
<g xmlns="http://www.w3.org/2000/svg">
</g>
<g xmlns="http://www.w3.org/2000/svg">
</g>
<g xmlns="http://www.w3.org/2000/svg">
</g>
<g xmlns="http://www.w3.org/2000/svg">
</g>
<g xmlns="http://www.w3.org/2000/svg">
</g>
<g xmlns="http://www.w3.org/2000/svg">
</g>
<g xmlns="http://www.w3.org/2000/svg">
</g>
</g></svg>
